<?xml version="1.0" encoding="UTF-8"?>
<!DOCTYPE svg PUBLIC "-//W3C//DTD SVG 1.1//EN" "http://www.w3.org/Graphics/SVG/1.1/DTD/svg11.dtd">
<svg xmlns="http://www.w3.org/2000/svg" xml:space="preserve" width="117.343mm" height="40.9187mm" version="1.1" style="shape-rendering:geometricPrecision; text-rendering:geometricPrecision; image-rendering:optimizeQuality; fill-rule:evenodd; clip-rule:evenodd"
viewBox="0 0 11776 4107"
 xmlns:xlink="http://www.w3.org/1999/xlink">
 <defs>
  <style type="text/css">
   <![CDATA[
    .str0 {stroke:#00A2E9;stroke-width:75.2695}
    .str1 {stroke:#177DDC;stroke-width:50.1796}
    .fil2 {fill:#00A2E9}
    .fil1 {fill:#177DDC}
    .fil3 {fill:#00A2E9;fill-rule:nonzero}
    .fil0 {fill:#177DDC;fill-rule:nonzero}
   ]]>
  </style>
 </defs>
 <g id="图层_x0020_1">
  <metadata id="CorelCorpID_0Corel-Layer"/>
  <path class="fil0" d="M5086 2241l288 -646 389 0 -44 101 1271 0c47,0 84,18 111,55 26,40 35,85 27,135l-124 832 -542 0 23 -154 123 0 94 -631c4,-26 -1,-48 -15,-67 -13,-18 -31,-26 -55,-26l-5 0 -348 878 -398 0 361 -878 -100 0 -382 878 -383 0 377 -878 -100 0 -185 401 -383 0zm1611 -824l28 -185 -917 0 -13 89c-4,26 3,49 22,68 18,19 39,28 62,28l818 0zm-840 -513l-27 185 916 0 13 -89c4,-26 -1,-48 -15,-67 -14,-19 -32,-29 -55,-29l-832 0zm1191 -141c45,0 83,18 112,55 26,40 35,85 28,135l-91 608 -1591 0c-47,0 -83,-19 -110,-58 -26,-36 -35,-80 -28,-133l91 -607 1589 0zm1263 230l-37 247 248 0 -21 143 -276 0 210 376 -8 60 -372 0 -85 -162 -136 162 -372 0 9 -60 334 -376 -323 0 21 -143 367 0 37 -247 -23 0 -87 205 -313 0 217 -503 310 0 -67 154 609 0 -21 144 -221 0zm566 529c-4,26 1,48 14,67 14,19 33,29 55,29l98 0 81 -537c4,-26 -2,-49 -15,-68 -14,-19 -33,-28 -55,-28l-98 0 -80 537zm-227 237c-46,0 -82,-19 -108,-55 -28,-36 -38,-81 -31,-133l109 -730 734 0c44,0 81,19 110,55 26,40 35,86 28,138l-108 725 -734 0zm-707 260l-32 214 903 0 17 -117c4,-26 -1,-49 -15,-68 -14,-19 -32,-29 -55,-29l-818 0zm818 566l31 -209 -902 0 -17 112c-4,26 1,49 15,68 14,19 31,29 53,29l820 0zm-1212 -706l1566 0c47,0 84,18 110,54 27,37 36,82 28,136l-98 657 -1568 0c-46,0 -82,-19 -108,-55 -27,-37 -36,-81 -28,-133l98 -659zm2091 682l85 -570 -156 39 22 -146 156 -39 89 -597 -150 0 21 -143 151 0 59 -397 389 0 -59 397 146 0 -21 143 -146 0 -74 498 151 -39 -21 146 -152 39 -123 821 -510 0 22 -152 121 0zm1540 -771l84 0 29 -193 -84 0 -29 193zm50 -334l84 0 15 -99c4,-27 0,-50 -13,-67 -13,-18 -31,-26 -55,-26l-3 0 -28 192zm-72 477l-39 264 415 0 -21 143 -415 0 -33 219 442 0 -22 151 -819 0 -178 -120 -33 120 -306 0 189 -701 305 0 -65 237 118 83 59 -396 -374 0 22 -143 373 0 29 -193 -419 0 21 -141 419 0 29 -192 -374 0 22 -144 373 0 19 -122 -420 0 22 -144 419 0 23 -153 403 0 -23 153 415 0 -21 144 -415 0 -18 122 244 0c44,0 80,18 110,55 26,40 35,85 28,135l-22 146 64 0 -21 141 -64 0 -50 336 -411 0z"/>
  <path class="fil1" d="M1937 2251l929 930c362,-255 707,-619 897,-1014l13 -27 665 -6 -45 94c-200,419 -491,800 -838,1104 -333,292 -734,526 -1188,636 -539,130 -1246,76 -1761,-321 -444,-343 -607,-840 -609,-1326l0 -39 0 0 170 -1 0 49c0,232 59,471 192,688 101,165 247,319 419,413 574,312 1170,226 1664,-4l-1175 -1176 0 0 0 0 667 0z"/>
  <path class="fil2" d="M2071 604l1176 1176 0 0 0 471 -1977 0 0 -471 1310 0 -930 -930c-362,255 -706,619 -897,1014l-13 27 -665 6 45 -94c201,-419 492,-800 838,-1104 333,-292 735,-526 1188,-636 539,-130 1246,-76 1761,321 444,343 608,840 609,1326l0 39 0 0 -170 1 0 -49c0,-232 -59,-471 -192,-689 -101,-164 -247,-318 -419,-412 -574,-312 -1170,-226 -1664,4z"/>
  <polygon class="fil3 str0" points="5193,3795 4882,3795 5081,2940 5380,2940 5345,3089 5158,3089 5112,3291 5285,3291 5251,3439 5077,3439 5029,3646 5228,3646 "/>
  <path class="fil0 str1" d="M5453 3222c20,-16 46,-28 76,-38 31,-9 56,-14 76,-14 105,0 138,86 98,257l-86 368 -104 0 21 -89 -2 0c-41,69 -87,104 -136,104 -35,0 -60,-16 -74,-49 -13,-33 -14,-78 -1,-135 28,-117 86,-185 176,-204l109 -23c16,-71 2,-106 -43,-106 -45,0 -93,22 -142,66l32 -137zm54 297c-41,8 -68,37 -79,87 -6,23 -5,41 1,55 6,14 18,21 34,21 22,0 44,-13 64,-39 21,-25 35,-57 44,-96l10 -43 -74 15z"/>
  <path class="fil0 str1" d="M5781 3631c29,37 61,56 97,56 45,0 72,-20 82,-59 6,-28 -7,-51 -40,-70 -41,-24 -67,-50 -78,-79 -10,-29 -10,-68 1,-117 14,-60 40,-107 78,-141 38,-34 81,-51 129,-51 35,0 66,8 94,25l-33 140c-22,-28 -51,-42 -86,-42 -18,0 -33,5 -46,15 -13,10 -21,24 -25,40 -7,28 4,51 32,68 29,18 51,35 64,50 14,15 22,35 25,60 4,24 1,53 -6,85 -15,63 -42,112 -81,147 -39,35 -84,52 -136,52 -41,0 -76,-11 -106,-32l35 -147z"/>
  <path class="fil0 str1" d="M6629 3185l-309 665c-72,154 -144,231 -216,231 -28,0 -49,-4 -62,-14l33 -143c12,14 27,21 44,21 30,0 56,-24 80,-71l39 -80 -10 -609 122 0 -16 382c-1,23 -4,49 -8,78l2 0c6,-19 15,-45 29,-77l164 -383 108 0z"/>
  <path class="fil3 str0" d="M6614 3580c29,57 70,85 124,85 30,0 55,-8 75,-25 19,-17 32,-39 38,-66 5,-23 4,-45 -3,-66 -7,-20 -33,-48 -77,-84 -69,-56 -91,-139 -66,-247 19,-79 52,-141 99,-185 48,-44 102,-66 163,-66 52,0 92,11 122,33l-40 171c-26,-39 -63,-59 -110,-59 -28,0 -52,8 -72,25 -20,16 -34,38 -40,66 -5,22 -4,42 3,61 7,18 29,43 66,75 44,36 71,75 81,115 10,41 8,89 -5,145 -19,82 -51,144 -97,187 -46,43 -101,65 -167,65 -60,0 -106,-16 -137,-48l43 -182z"/>
  <path class="fil0 str1" d="M7624 3795l-109 0 81 -348c22,-94 12,-140 -30,-140 -20,0 -39,14 -59,42 -19,29 -34,63 -43,104l-80 342 -109 0 82 -352c21,-91 11,-136 -30,-136 -21,0 -40,13 -59,40 -19,27 -33,63 -43,108l-80 340 -109 0 142 -610 109 0 -22 95 2 0c21,-35 44,-62 71,-81 26,-19 51,-29 75,-29 53,0 80,38 81,115 47,-77 98,-115 153,-115 82,0 104,82 65,246l-88 379z"/>
  <path class="fil0 str1" d="M7902 3222c20,-16 46,-28 76,-38 31,-9 56,-14 77,-14 104,0 137,86 97,257l-86 368 -104 0 21 -89 -1 0c-42,69 -88,104 -137,104 -35,0 -60,-16 -74,-49 -13,-33 -14,-78 0,-135 27,-117 86,-185 176,-204l108 -23c16,-71 2,-106 -43,-106 -45,0 -92,22 -142,66l32 -137zm54 297c-41,8 -68,37 -79,87 -6,23 -5,41 1,55 7,14 18,21 34,21 23,0 44,-13 65,-39 20,-25 35,-57 43,-96l11 -43 -75 15z"/>
  <path class="fil0 str1" d="M8545 3346c-10,-12 -25,-18 -44,-18 -25,0 -48,15 -70,46 -22,31 -39,73 -52,127l-68 294 -109 0 142 -610 109 0 -27 115 2 0c37,-84 80,-126 128,-126 13,0 22,3 27,8l-38 164z"/>
  <path class="fil0 str1" d="M8781 3788c-20,15 -47,22 -80,22 -80,0 -104,-68 -72,-204l67 -288 -61 0 31 -133 61 0 31 -134 121 -51 -43 185 86 0 -31 133 -86 0 -60 257c-15,65 -7,98 25,98 12,0 26,-6 42,-18l-31 133z"/>
  <path class="fil3 str0" d="M8924 3580c29,57 71,85 125,85 30,0 55,-8 74,-25 20,-17 33,-39 39,-66 5,-23 4,-45 -3,-66 -8,-20 -33,-48 -77,-84 -69,-56 -91,-139 -66,-247 19,-79 52,-141 99,-185 48,-44 102,-66 163,-66 51,0 92,11 122,33l-40 171c-26,-39 -63,-59 -110,-59 -28,0 -52,8 -72,25 -20,16 -34,38 -40,66 -5,22 -4,42 3,61 7,18 29,43 66,75 44,36 70,75 81,115 10,41 8,89 -5,145 -19,82 -51,144 -97,187 -46,43 -102,65 -167,65 -60,0 -106,-16 -137,-48l42 -182z"/>
  <path class="fil0 str1" d="M9473 3722l-82 354 -110 0 208 -891 109 0 -21 93 1 0c45,-72 94,-108 147,-108 48,0 78,27 93,81 14,55 10,128 -11,222 -24,102 -59,183 -104,245 -46,61 -94,92 -145,92 -45,0 -73,-29 -83,-88l-2 0zm44 -197c-10,44 -11,79 -3,107 8,27 24,41 47,41 27,0 53,-17 76,-52 23,-34 42,-83 57,-146 26,-112 12,-168 -41,-168 -25,0 -49,15 -72,46 -23,31 -40,71 -51,119l-13 53z"/>
  <path class="fil0 str1" d="M10243 3540l-247 0c-18,95 6,142 72,142 41,0 82,-17 121,-50l-30 131c-42,31 -90,47 -146,47 -59,0 -99,-27 -120,-82 -20,-55 -19,-131 4,-229 23,-98 59,-177 108,-238 50,-61 101,-91 154,-91 54,0 89,26 107,79 18,52 16,124 -6,216l-17 75zm-76 -111c21,-92 9,-137 -37,-137 -18,0 -38,13 -58,37 -20,25 -37,59 -50,100l145 0z"/>
  <path class="fil0 str1" d="M10688 3540l-246 0c-19,95 5,142 72,142 41,0 81,-17 121,-50l-31 131c-41,31 -90,47 -145,47 -60,0 -100,-27 -120,-82 -20,-55 -19,-131 4,-229 22,-98 58,-177 108,-238 49,-61 101,-91 154,-91 53,0 89,26 106,79 18,52 16,124 -5,216l-18 75zm-76 -111c22,-92 9,-137 -36,-137 -19,0 -38,13 -59,37 -20,25 -37,59 -50,100l145 0z"/>
  <path class="fil0 str1" d="M11103 3795l-109 0 20 -86 -1 0c-43,67 -90,101 -141,101 -48,0 -80,-27 -95,-82 -15,-55 -12,-130 10,-224 23,-100 58,-181 104,-242 45,-61 94,-92 145,-92 48,0 76,29 82,86l2 0 84 -364 110 0 -211 903zm-27 -345c10,-42 10,-76 1,-103 -9,-27 -25,-40 -47,-40 -27,0 -52,17 -75,51 -24,35 -42,81 -56,140 -13,56 -16,99 -8,130 8,30 24,45 50,45 24,0 48,-16 71,-48 23,-32 41,-73 53,-125l11 -50z"/>
  <path class="fil0 str1" d="M11737 3185l-309 665c-72,154 -144,231 -216,231 -28,0 -49,-4 -62,-14l33 -143c12,14 26,21 44,21 30,0 56,-24 79,-71l40 -80 -10 -609 121 0 -15 382c-1,23 -4,49 -9,78l2 0c6,-19 16,-45 29,-77l164 -383 109 0z"/>
 </g>
</svg>
